<svg id="Ebene_1" data-name="Ebene 1" xmlns="http://www.w3.org/2000/svg" viewBox="0 0 109.44 66.24"><defs><style>.cls-1{fill:#555e13;}.cls-2{fill:none;stroke:#555e13;stroke-linecap:round;stroke-linejoin:round;stroke-width:0.28px;}</style></defs><polygon class="cls-1" points="10.41 37.71 11.3 37.71 11.3 49.22 10.41 49.22 10.41 39.01 10.38 39.01 6.02 44.4 1.67 39.01 1.64 39.01 1.64 49.22 0.74 49.22 0.74 37.71 1.64 37.71 6.02 43.06 10.41 37.71"/><path class="cls-1" d="M20.3,35.41a.75.75,0,1,1-.75-.74.75.75,0,0,1,.75.74m-3,0a.75.75,0,0,1-1.49,0,.75.75,0,0,1,1.49,0m5.57,2.16v6.28c0,3.95-2.48,5.38-4.83,5.38-2.6,0-4.81-1.72-4.81-5.18V37.57h.9V44c0,3,1.85,4.39,3.91,4.39S22,47.17,22,43.9V37.57Z" transform="translate(0.74 0.14)"/><polygon class="cls-1" points="27.19 48.48 32.88 48.48 32.88 49.22 26.3 49.22 26.3 37.71 27.19 37.71 27.19 48.48"/><polygon class="cls-1" points="35.26 48.48 40.94 48.48 40.94 49.22 34.36 49.22 34.36 37.71 35.26 37.71 35.26 48.48"/><polygon class="cls-1" points="48.72 38.45 43.34 38.45 43.34 43.06 48.58 43.06 48.58 43.8 43.34 43.8 43.34 48.48 48.85 48.48 48.85 49.22 42.44 49.22 42.44 37.71 48.72 37.71 48.72 38.45"/><path class="cls-1" d="M52.87,37.57c2.82,0,3.81,1.44,3.81,3a2.86,2.86,0,0,1-2.19,2.8A5.31,5.31,0,0,1,56,45.1l2.59,4h-1l-2-3.16c-1.38-2.17-1.82-2.36-3.21-2.36H50.81v5.52h-.89V37.57Zm-2.06,5.25h1.91c2,0,3-.88,3-2.26s-.93-2.25-3-2.25H50.81Z" transform="translate(0.74 0.14)"/><rect class="cls-1" x="59.73" y="45.02" width="4" height="0.79"/><path class="cls-1" d="M9.67,56.28a8.09,8.09,0,0,0-4.08-1.17,5.08,5.08,0,1,0,.25,10.16A6.68,6.68,0,0,0,9,64.57V61.46H6.57v-.74H9.89v4.4a9.39,9.39,0,0,1-4.08,1A6,6,0,0,1-.45,60.16a5.85,5.85,0,0,1,6.17-5.87,8.79,8.79,0,0,1,4,1Z" transform="translate(0.74 0.14)"/><path class="cls-1" d="M15.35,54.44c2.82,0,3.82,1.43,3.82,3a2.87,2.87,0,0,1-2.2,2.8A5.31,5.31,0,0,1,18.51,62l2.6,4H20.06l-2-3.16c-1.38-2.17-1.82-2.36-3.2-2.36H13.29V66H12.4V54.44Zm-2.06,5.25H15.2c2,0,3-.88,3-2.26s-.93-2.25-3-2.25H13.29Z" transform="translate(0.74 0.14)"/><path class="cls-1" d="M27.48,66.1a5.91,5.91,0,1,1,0-11.81,5.91,5.91,0,1,1,0,11.81m0-11a5.08,5.08,0,1,0,5.11,5.08,5.05,5.05,0,0,0-5.11-5.08" transform="translate(0.74 0.14)"/><path class="cls-1" d="M41.1,56a4.88,4.88,0,0,0-2.59-.88,2.28,2.28,0,0,0-2.43,2.2c0,3.07,5.49,1.6,5.49,5.64a3.21,3.21,0,0,1-3.34,3.15,5.42,5.42,0,0,1-3-1V64a4.72,4.72,0,0,0,2.91,1.23A2.33,2.33,0,0,0,40.61,63c0-3.27-5.49-1.84-5.49-5.64a3.18,3.18,0,0,1,3.31-3.05A5.5,5.5,0,0,1,41.1,55Z" transform="translate(0.74 0.14)"/><path class="cls-1" d="M49,56a4.85,4.85,0,0,0-2.59-.88,2.28,2.28,0,0,0-2.43,2.2c0,3.07,5.49,1.6,5.49,5.64a3.21,3.21,0,0,1-3.34,3.15,5.37,5.37,0,0,1-3-1V64A4.68,4.68,0,0,0,46,65.27,2.32,2.32,0,0,0,48.47,63c0-3.27-5.49-1.84-5.49-5.64a3.18,3.18,0,0,1,3.31-3.05A5.47,5.47,0,0,1,49,55Z" transform="translate(0.74 0.14)"/><polygon class="cls-1" points="61.91 54.58 62.81 54.58 62.81 66.09 61.91 66.09 61.91 55.88 61.88 55.88 57.52 61.26 53.17 55.88 53.14 55.88 53.14 66.09 52.24 66.09 52.24 54.58 53.14 54.58 57.52 59.93 61.91 54.58"/><path class="cls-1" d="M74.7,66h-.93L72,62H66.33l-1.82,4h-.93L68.9,54.36h.49ZM69.13,55.81l-2.46,5.41h4.94Z" transform="translate(0.74 0.14)"/><polygon class="cls-1" points="87.33 66.09 86.59 66.09 77.85 56.03 77.85 66.09 76.95 66.09 76.95 54.58 77.72 54.58 86.44 64.64 86.44 54.58 87.33 54.58 87.33 66.09"/><polygon class="cls-1" points="100.54 66.09 99.8 66.09 91.06 56.03 91.06 66.09 90.16 66.09 90.16 54.58 90.92 54.58 99.65 64.64 99.65 54.58 100.54 54.58 100.54 66.09"/><path class="cls-2" d="M93.51,11.93c0-.76-.06-1.5-.06-2.27a7.31,7.31,0,0,1,.1-1.18c0-.32-.13-1,.16-1.27a3.64,3.64,0,0,1,1,.8c.34.42.74,1.09,1.27,1.27A8.85,8.85,0,0,1,97.14,8c.29-.24.46-.56.78-.77,0,.29,0,.61,0,.91,0,.52.08,1.05.11,1.58s.06,1.31.06,2m.44.06a2.93,2.93,0,0,0,0-1c0-.48-.06-1-.07-1.43s0-.74,0-1.16a5.9,5.9,0,0,0-.08-1.52c-.21,0-.71.37-.89.46a2.5,2.5,0,0,0-.52.51c-.22.24-.91,1.4-1.2,1.32s-.52-.59-.62-.73a2.82,2.82,0,0,0-.29-.39c-.11-.11-.14-.27-.24-.39s-.91-1-1.21-.35a2.23,2.23,0,0,0-.1.78c0,.47,0,.95,0,1.42s-.11,1-.14,1.56a3.13,3.13,0,0,0,0,1.06M94,11.8c.27-.54,0-1.56,0-2.15V8.58c0-.29.15-.53.14-.8a8.18,8.18,0,0,0,1.83,2.29c.26-.3.78-1,1.06-1.3s.53-.71.79-1A17.88,17.88,0,0,0,97.53,10c0,.46-.21,1.37,0,1.76m-3.84,0c0-1.48.18-3,.17-4.42.05.15.2.17.3.28a6.94,6.94,0,0,1,.51.67A6.86,6.86,0,0,0,95.9,9.59a13,13,0,0,1,1.86-2c0,.74.06,1.45.06,2.19a6.53,6.53,0,0,0,.1,2m-4.51,0a8.36,8.36,0,0,0,0-1.87c0-.55.08-1.11.13-1.66a3.45,3.45,0,0,0,0-1.28c.74,0,1,.57,1.4,1.08a4.39,4.39,0,0,0,1,1c.32-.42.75-.72,1.06-1.13s.38-.93,1.14-.89c0,.69,0,1.39,0,2.08,0,.89.12,1.79.14,2.67m-97,3.78a38.78,38.78,0,0,0,1.2,4.12,35.37,35.37,0,0,1,2,6.18,9.54,9.54,0,0,1,1-2.59c.24-.45.47-.84.68-1.28s.67-1.74,1-1.81A22.87,22.87,0,0,1,8.62,23a9.07,9.07,0,0,0,1.91,2.91,19.4,19.4,0,0,1,1.29-5c.3-.75.63-1.35.9-2.14a20.59,20.59,0,0,1,.66-2.68m1.57,0a9.49,9.49,0,0,0-.41,1.77,6.14,6.14,0,0,1-.36,1.52A19.34,19.34,0,0,0,13,22.67c-.21,1-.53,2-.81,3-.21.77-.32,2.52-1.06,2.73a.83.83,0,0,1-.58,0c-.25-.14-.2-.38-.29-.68a15.63,15.63,0,0,0-2.62-4.38c-.13-.17-.29-.35-.42-.54A11.55,11.55,0,0,0,6.43,25c-.24.62-.45,1.24-.67,1.85-.14.41-.28,1.29-.6,1.58a2.1,2.1,0,0,1-1.56,0,18.16,18.16,0,0,1-.87-2.95,5.45,5.45,0,0,0-.37-1.25,7.9,7.9,0,0,1-1-1.89c-.47-2.18-1.58-3.83-1.86-6M1,15.52a3.65,3.65,0,0,1,.53,1.82,20.86,20.86,0,0,0,1.38,4.27,23.74,23.74,0,0,1,1,3.42c.12.52.13,1.75.57,2a8.37,8.37,0,0,1,1.14-2.37c.63-.85,1.88-2.17,2-3.28A2.73,2.73,0,0,0,7.79,23c.37.62.9,1.15,1.32,1.74a9,9,0,0,1,1.14,1.7,7.82,7.82,0,0,0,.9,1.86c.95-1.89.89-3.17,1.18-4.88.23-1.38,1-2.45,1.22-3.85a18.68,18.68,0,0,1,.68-2.4,5,5,0,0,0,.2-1m-15,0c.45,1,1.11,1.71,1.44,2.69A31.82,31.82,0,0,1,2,23.09a28.2,28.2,0,0,0,.65,3.44c.23.7.69,1.21.94,1.87.39,0,.82.08,1.2.06.59-1.09.75-1.77,1.26-2.69a8.34,8.34,0,0,0,.81-2.26c.11-.54.33-1,.4-1.51a13.49,13.49,0,0,1,.83,1.75c.36.66.57,1.41.89,2.09s.62,1.44.94,2.14.39.57,1,.54a8.18,8.18,0,0,1,.37-2c.24-1.11.57-2.23.75-3.37.38-2.44,1.65-4.68,2.09-7.13M.62,15.4c-.12.49.54,1.15.71,1.65s.14,1,.28,1.54A12.17,12.17,0,0,0,2.08,20,32.22,32.22,0,0,1,4,27.36a.93.93,0,0,0,.57.06,8.13,8.13,0,0,1,1.28-3.9,17.61,17.61,0,0,0,1.06-1.88,2.75,2.75,0,0,1,.46-.94A17.15,17.15,0,0,1,8.56,23c.39.81,1,1.5,1.33,2.34.24.59.29,1.22.53,1.82a2.59,2.59,0,0,0,.51-.18,17,17,0,0,1,1.46-6.54C13,19,14,17.44,14,15.88M0,16c-.29.12.3.29.35.61a13.87,13.87,0,0,0,.93,2.32c.6,1.65,1.09,3.33,1.52,5A26.4,26.4,0,0,0,3.49,27a7.35,7.35,0,0,0,.26,1c.19.21.52,0,.82.06.29-1.11.93-2,1.28-3.09.43-1.37,1.35-2.82,1.53-4.27.25.53.39,1.13.69,1.69S8.65,24,9,24.72c.35.91.83,1.77,1.24,2.65.23.49.26,1,.91.84.08-2.58,1.92-4.93,2.46-7.39.2-.94.44-2.05.69-3,.18-.68.73-1.13.93-1.77m11.38,5.7c-2.4,0-4.76,0-7.13.12a52.45,52.45,0,0,0,0,5.32c2.3.11,4.64.12,6.91.12M27,17c-3.08-.33-6.46-.93-9.3,0,.69,1.2.48,3.83.4,5.25-.05.94-.07,2-.11,2.94a7.44,7.44,0,0,0-.12,2.51,20,20,0,0,1,4.87-.41c1.46,0,3,.34,4.37.21m4.09-10.8c0,3.92.3,7.58.3,11.35m-.89-11.77c0,4-.45,7.92-.45,11.92m48.28,0a34.16,34.16,0,0,0,0-4.41c-.16-1.22-.82-2.32-.89-3.68s-.17-2.38,1.19-2.7,2.75,0,4-.28m-9.06-.85h9.36m-20.8.42c0,3.33-1.33,13.13,5,10.93,2.22-.77,3-3.3,3.15-5.25s.83-5,.15-6.53M56.6,18a5.76,5.76,0,0,0-7.55-.36c-1.55,1.46-1.94,5.19-1.06,6.89a6.2,6.2,0,0,0,5.94,3.12c1.76-.16,5.15-2.27,3.71-4.54,0-.05,0-.34,0-.41-1,0-2.54-.25-3.24.27m2.82-4.4c-.86-3.25-4.58-2.88-7-1.72s-2.11,4.1-1.48,6.4c.26.92.31,2.52,1,3.27.82.9,2.33.79,3.46.84,3.33.18,3.89-1.89,4.14-4.52-1.08-.05-2.17,0-3.25,0M42.94,16.32c0,1.81,1,8.85-.4,9.92-1.68-2.81-4.13-6.56-7.31-7.5.73,2.67.13,6.15.13,8.93m0,.28c0-3.8-.33-7.52-.13-11.33,2.67-.19,3,2.8,4,4.66.59,1,2.67,5.91,4.1,5.66a47.77,47.77,0,0,0-.57-11M30.46,17.17c.42,2.49,1.31,5.31.78,7.85-.2,1-1.08,2.6-.19,3.5M26.45,16.6c-1.67,0-3.4-.11-5.06,0s-2.51.36-2.52,2c0,2.84.31,5.88.47,8.78,2.5.12,5-.12,7.55-.12M73.57,17c3.47,0,6.67-.83,10.22-.83m-.44.83a13.07,13.07,0,0,0-4.8.45c-.12,2.06,0,4.17,0,6.25,0,1.74-.5,3.31-.44,5M73.42,17.27A21.56,21.56,0,0,0,77.63,17C77.9,20.73,78,24.8,79,28.42M73.13,16.57H83.35m.14,1c-1,.4-2.73.1-3.91.16.21,1.5-.32,3.43-.32,5.14,0,1.55-.51,4.27.29,5.57m-6.27-11a17.62,17.62,0,0,0,4.06-.12c.22,3.63,0,7.35,0,11M73.13,16c3.49,0,7-.14,10.51-.14m-.58,1.67c-.93.12-2.7-.62-3.48.06s-.12,2.5,0,3.31c.28,2.46-.44,4.81-.44,7.36M73.28,17.55c1.27,0,2.52.22,3.77.16a39.56,39.56,0,0,1,.46,4.85V28M61.74,16.16c0,4-1.23,11.71,4.38,12,3.43.17,3.8-3,3.8-5.75,0-1.94.93-4.91.14-6.66m-6.56.42c0,3.22-1.52,9.68,2.15,11.22,2.24.94,3.75-1.8,4-3.56.2-1.48.08-3,.17-4.49.07-1,.9-2.71.12-3.45m-6.86.28c0,2.7-1.14,11,2.92,11.15,5,.14,3.5-8.16,3.5-11.43m1.75,0c0,4.37,1.69,12.21-5,11.85a5.07,5.07,0,0,1-3.33-1c-1.36-1.1-.81-1.77-1.06-3.32a47.87,47.87,0,0,1-.58-7.52m1.16.42c0,2.89-.92,10.33,3.51,10.59,2.62.16,3.58-1.84,3.65-3.9A24.81,24.81,0,0,0,69,19.23,31.25,31.25,0,0,1,69,16m-7.73.14c0,2.6.49,5.11.73,7.7.09,1.1-.19,2.69.54,3.59s2.63,1.12,3.8,1.11c3.22,0,4.12-2.29,4.12-5,0-2.35.23-5.13-.44-7.39m-34.23,12a96.39,96.39,0,0,1-.1-11c1.32-.38,1.61,2.13,2.05,3a28.06,28.06,0,0,0,2.14,3.25,27.92,27.92,0,0,1,2,3.17A2.18,2.18,0,0,0,44.23,28c.11-2.2-.36-4.37-.46-6.58-.09-1.82-.09-3.67-.09-5.51M36.16,28.15c-.83-1.54-.14-4.6-.22-6.4-.07-1.46-.17-2.93-.1-4.41,1,0,2.5,3.66,3,4.57a30.8,30.8,0,0,0,1.94,3.74c.65.88,2.77,3.73,3.47,1.88.36-.94,0-2.63,0-3.68v-3c0-1.65-.33-3.1-.33-4.73M35,28.15V21.81a13.92,13.92,0,0,1,.23-4c.51-1.63,1.08-.59,1.77.53,1.18,1.91,2.36,3.62,3.64,5.45.66.94,1.56,3.77,3,3.42.21-3.74-.43-7.4-.43-11.14M36.5,28.15a50.23,50.23,0,0,0-.29-5.25c-.11-1.11-.32-2.94.29-3.88,1,2,2.77,4,4,5.92.61.95,1,2.23,1.86,2.89a3.14,3.14,0,0,0,2.3.41c.12-2.26-.42-4.51-.54-6.73-.11-2,.33-3.85.34-5.79M34.37,28.37v-8.9c0-1,.34-2.21.24-3.2a3.08,3.08,0,0,1,2.59.06c.87.64,1.42,2.65,2,3.58a29.07,29.07,0,0,0,3.39,5.21c-.05-3.06-.45-6.17-.45-9.08m-10.55.32c.67,1.63-.26,4.62-.42,6.37S31,26.41,31,28.26M29.43,16.15c.64,2.15.23,5.1.11,7.32-.08,1.52-.11,3-.11,4.58m.9-11.69c.57,2.21.2,5.12.11,7.38-.06,1.4-.22,2.79-.22,4.2M31.11,16c.28,2.77,1,5.46.68,8.26a36.46,36.46,0,0,0-.34,3.64M29.54,16.15c.75,2,.35,4.22.45,6.33a19.83,19.83,0,0,1-.22,5.57M27.3,27.3c-1.79,0-3.81,0-5.41.16a7.87,7.87,0,0,1-3.1-.08,88.43,88.43,0,0,1-.23-10.68c1.53-.07,3.08,0,4.61,0,1.13,0,3,.28,3.9-.11m-.11.64c-2.49,0-5-.1-7.5,0a41,41,0,0,0,0,4.15c2.13.6,4.67-.23,6.83,0m.56,5.68c-1,0-1.93-.1-2.91-.1s-2.65.36-3.49.1c-1.53-.47-.29-3.64-.32-4.7,2.12-.1,4.08.2,6.16.2m.22-5.89c-2.48.76-5.55-.7-8,.12-.11,2,.17,3.88-.11,5.87a24.94,24.94,0,0,0-.22,4.81c3.08.17,6,.34,9.18.34m-.56-10.5c-2.4-.18-4.71.21-7,.12a31,31,0,0,0,.11,3.61c2.27.12,4.55.24,6.83.24m.11,5.46c-2.19,0-4.42.1-6.6,0,0-1.4-.44-3-.34-4.57,2.1-.12,4.27,0,6.38,0m.78-6c-3.11,0-6.23,0-9.29.12a56.24,56.24,0,0,0-.13,6.1,39.56,39.56,0,0,0,0,5.66c3.18.19,6.33,0,9.5,0M57.27,19c-1.53-2.34-5.19-2.47-7.42-1-1.37.92-2.38,1.84-2.26,3.54a6.74,6.74,0,0,0,1,3.12,5.66,5.66,0,0,0,4.71,2.47c1.29.06,3.23.35,4.16-.67a3.23,3.23,0,0,0,.54-2.25,3.51,3.51,0,0,0,.08-.82c-1.28-.06-2.54-.09-3.83-.09M57.7,19c0-1.67-2.77-2.86-4.28-2.91a7,7,0,0,0-4.25.81C48.1,17.62,48,19,47.94,20.21c-.1,2.7,1.18,4.24,3.07,6,1.6,1.51,4.7,2.92,6.43.9a7,7,0,0,0,1.38-5c-1.6-.07-3.27.22-4.86.15m0,0a13,13,0,0,1,4.13,0c-.17.41-.36,1.09-.49,1.52C56,29.32,49.17,26.5,49,21.88c-.09-1.88.42-4.09,2.38-4.86,1.62-.64,6.91-.16,6.73,2.15m-4.15,2.61c1.6,0,3.24-.07,4.84,0,.09,1.88-.08,2.87-1.44,4.2s-2.48,2.76-4.74,2.37a9.59,9.59,0,0,1-3.35-1.45,3.52,3.52,0,0,1-1.77-2.45c-.59-2-1.18-4.77.2-6.53a6.9,6.9,0,0,1,4.53-2.54c2.26-.1,5.84,1,6,3.68m-1.42,0c-.7-1.76-2.64-2.43-4.56-2a4.2,4.2,0,0,0-3.24,5.12C49.28,23.67,51.28,26,53,26c1,0,2.5.31,3.22-.48a2.79,2.79,0,0,0,.5-1.31c-.14-.65-.28-.48-1-.53a4.77,4.77,0,0,0-2,.13,4,4,0,0,1,.79-.81m49-15a2.16,2.16,0,0,0-2.92-.38c-.54.36-.94.72-.89,1.39a2.72,2.72,0,0,0,.41,1.23,2.23,2.23,0,0,0,1.86,1c.5,0,1.27.14,1.63-.26a1.22,1.22,0,0,0,.21-.89,1.12,1.12,0,0,0,0-.32c-.5,0-1,0-1.51,0M103.71,8c0-.66-1.09-1.13-1.69-1.15a2.78,2.78,0,0,0-1.67.32,1.6,1.6,0,0,0-.48,1.32,2.88,2.88,0,0,0,1.21,2.37c.62.6,1.85,1.15,2.52.36a2.72,2.72,0,0,0,.55-2c-.63,0-1.29.08-1.92.06m0,0a5.24,5.24,0,0,1,1.63,0,6,6,0,0,0-.19.6c-.65,2.17-3.34,1.06-3.43-.75a1.85,1.85,0,0,1,.94-1.92c.64-.25,2.72-.06,2.65.85m-1.63,1c.63,0,1.27,0,1.9,0a1.77,1.77,0,0,1-.56,1.65c-.58.57-1,1.09-1.87.94a3.92,3.92,0,0,1-1.32-.57,1.4,1.4,0,0,1-.7-1,3,3,0,0,1,.08-2.57,2.75,2.75,0,0,1,1.79-1c.88,0,2.29.4,2.35,1.45m-.56,0a1.51,1.51,0,0,0-1.79-.8,1.66,1.66,0,0,0-1.28,2c.14.59.92,1.5,1.6,1.52.4,0,1,.12,1.26-.19a1.05,1.05,0,0,0,.2-.51c0-.26-.11-.2-.39-.21a1.74,1.74,0,0,0-.79.05,1.57,1.57,0,0,1,.31-.32m-4-9.23a9.09,9.09,0,0,0-6,1.74,7.09,7.09,0,0,0-2.12,2.14c-.33.72-.4,1.48-.67,2.15-.79,1.88,0,4.83.7,6.58,1.53,3.73,4.89,6.25,9.14,4.92A11.2,11.2,0,0,0,106,13a7.92,7.92,0,0,0,.23-7.11,6.79,6.79,0,0,0-2-3.11A12.27,12.27,0,0,0,100.8,1.5,11,11,0,0,0,97.15.92a7,7,0,0,0-4.46,2.14C90.57,4.92,88.5,8.12,88.79,11c.21,2,1.85,3.53,3.5,4.53,1.18.73,2.29,1.68,3.74,1.82a14.32,14.32,0,0,0,4-.23c2.69-.5,5.77-2,6.67-4.61a12.8,12.8,0,0,0,.19-6.67c-.55-1.87-2.4-3.59-4-4.7s-4.18-.87-6-.75c-3.1.2-5.24,2.2-6.72,4.77a10.08,10.08,0,0,0-.73,7.75c.43,1.39,1.14,3.68,2.57,4.34,1.66.77,3.82.71,5.64.71,2.68,0,6.11-.16,7.87-2.28,1.43-1.71,1.62-4.44,1.56-6.6s-.85-5.35-2.6-7-4.06-2-6.31-2.06C96.5,0,94.85-.15,93.44.69A11.62,11.62,0,0,0,90,3.6c-1.68,2.2-1.87,5.32-1.43,8a6.9,6.9,0,0,0,1.1,3A10.31,10.31,0,0,0,92,16.75a9.12,9.12,0,0,0,7.79,1.59M100.27.63A17.92,17.92,0,0,0,96,1a7.46,7.46,0,0,0-4.13,2.63c-2.59,3-1.92,7.05.11,10.22,1,1.58,3.13,2.57,4.85,3.3a6.57,6.57,0,0,0,4.07.76,12.11,12.11,0,0,0,3.24-1.28c3.68-2.34,6-8.36,2.95-12C106,3.23,103.93,1.5,102,1.15a13.83,13.83,0,0,0-6.9.77A7.62,7.62,0,0,0,90.3,7.76,7.92,7.92,0,0,0,92,14.44c1.48,2,3.67,2.66,6.14,3s5.42.51,7.39-1.2c1.55-1.34,2.37-4,2.62-5.93.35-2.75-.09-6.29-2.72-8C103,.78,99.24.63,96.47.85a6.84,6.84,0,0,0-5.66,4.6c-1.69,4.08-1,8.07,2.47,11.08C95,18,96.49,18.05,98.71,18.16c1.93.09,3.94-.08,5.39-1.35.6-.52,1.39-1,2-1.6a7.43,7.43,0,0,0,1.54-3.77c.35-1.86.53-4.41-.34-6.15a7.15,7.15,0,0,0-2.94-3.46A14.08,14.08,0,0,0,100.2,1,11,11,0,0,0,93.42,2.2a9.61,9.61,0,0,0-4.57,8.6c.16,2.66,2.42,5.16,4.81,6.42a11.25,11.25,0,0,0,7.7.8,10.68,10.68,0,0,0,3-1,20.11,20.11,0,0,0,1.81-1.17" transform="translate(0.74 0.14)"/></svg>