<svg id="Ebene_1" data-name="Ebene 1" xmlns="http://www.w3.org/2000/svg" viewBox="0 0 20.49 18.89"><defs><style>.cls-1{fill:none;stroke:#fff;stroke-linecap:round;stroke-linejoin:round;stroke-width:0.28px;}</style></defs><path class="cls-1" d="M8.63,14.65c0-.75-.06-1.5-.06-2.27a7.18,7.18,0,0,1,.1-1.17c.05-.33-.13-1.05.16-1.28a3.85,3.85,0,0,1,.95.8c.34.42.74,1.1,1.27,1.28a9.5,9.5,0,0,1,1.21-1.25c.29-.24.46-.56.78-.77,0,.29,0,.61,0,.91,0,.52.08,1,.11,1.58s.06,1.32.06,2" transform="translate(-3.33 -2.58)"/><path class="cls-1" d="M13.62,14.52a2.93,2.93,0,0,0,0-1c0-.48,0-.94-.07-1.43s0-.74,0-1.16a5.82,5.82,0,0,0-.08-1.51c-.21,0-.71.36-.89.46a2.71,2.71,0,0,0-.52.5c-.22.25-.91,1.4-1.2,1.32s-.52-.59-.62-.73A3.58,3.58,0,0,0,10,10.6c-.11-.1-.14-.27-.24-.38S8.8,9.17,8.5,9.86a2.49,2.49,0,0,0-.1.78c0,.47,0,.95,0,1.42s-.11,1-.14,1.56a3.2,3.2,0,0,0,0,1.07" transform="translate(-3.33 -2.58)"/><path class="cls-1" d="M9.07,14.52c.27-.54,0-1.55,0-2.14V11.31c0-.29.15-.54.14-.8A8.48,8.48,0,0,0,11,12.8c.26-.31.78-1,1.06-1.3s.53-.72.79-1a17.88,17.88,0,0,0-.24,2.19c0,.47-.21,1.38,0,1.76" transform="translate(-3.33 -2.58)"/><path class="cls-1" d="M8.83,14.52c0-1.48.18-3,.17-4.42.05.15.2.18.3.28a5.63,5.63,0,0,1,.51.67A6.86,6.86,0,0,0,11,12.31a14,14,0,0,1,1.86-2c0,.74.06,1.45.06,2.19a6.61,6.61,0,0,0,.1,2.05" transform="translate(-3.33 -2.58)"/><path class="cls-1" d="M8.53,14.52a8.37,8.37,0,0,0,0-1.87c0-.55.08-1.1.13-1.65a3.51,3.51,0,0,0,0-1.29c.74,0,1,.57,1.41,1.08a4.15,4.15,0,0,0,1,1c.32-.41.75-.72,1.06-1.13s.39-.93,1.14-.89c0,.69,0,1.39,0,2.09,0,.88.11,1.78.13,2.66" transform="translate(-3.33 -2.58)"/><path class="cls-1" d="M18.66,10.72a2.17,2.17,0,0,0-2.92-.38c-.54.36-.94.72-.89,1.39A2.68,2.68,0,0,0,15.26,13a2.23,2.23,0,0,0,1.86,1c.5,0,1.27.14,1.63-.26a1.22,1.22,0,0,0,.21-.89,1,1,0,0,0,0-.32c-.5,0-1,0-1.51,0" transform="translate(-3.33 -2.58)"/><path class="cls-1" d="M18.83,10.72c0-.66-1.09-1.13-1.69-1.14a2.78,2.78,0,0,0-1.67.31A1.61,1.61,0,0,0,15,11.21a2.88,2.88,0,0,0,1.21,2.37c.63.6,1.85,1.15,2.52.36a2.72,2.72,0,0,0,.55-2c-.63,0-1.29.09-1.91.06" transform="translate(-3.33 -2.58)"/><path class="cls-1" d="M17.37,12A5.24,5.24,0,0,1,19,12c-.07.17-.14.44-.19.6-.64,2.18-3.34,1.07-3.43-.75A1.83,1.83,0,0,1,16.32,10C17,9.7,19,9.89,19,10.8" transform="translate(-3.33 -2.58)"/><path class="cls-1" d="M17.34,11.83c.63,0,1.27,0,1.9,0a1.79,1.79,0,0,1-.56,1.65c-.58.56-1,1.08-1.87.93a3.73,3.73,0,0,1-1.32-.57,1.41,1.41,0,0,1-.7-1,3,3,0,0,1,.08-2.57,2.74,2.74,0,0,1,1.79-1c.88,0,2.29.39,2.35,1.44" transform="translate(-3.33 -2.58)"/><path class="cls-1" d="M18.45,10.76a1.51,1.51,0,0,0-1.79-.8,1.66,1.66,0,0,0-1.28,2c.14.6.92,1.5,1.6,1.52.4,0,1,.13,1.27-.19a1.1,1.1,0,0,0,.19-.51c-.05-.26-.11-.19-.39-.21a1.89,1.89,0,0,0-.79.05,1.62,1.62,0,0,1,.32-.32" transform="translate(-3.33 -2.58)"/><path class="cls-1" d="M13.53,3.09a9.14,9.14,0,0,0-6,1.74A7.21,7.21,0,0,0,5.36,7C5,7.69,5,8.45,4.69,9.12c-.79,1.88,0,4.83.7,6.58,1.53,3.73,4.89,6.25,9.14,4.93a11.21,11.21,0,0,0,6.63-4.87,7.92,7.92,0,0,0,.23-7.11,6.82,6.82,0,0,0-2.05-3.1,12,12,0,0,0-3.42-1.33,10.76,10.76,0,0,0-3.65-.57A7,7,0,0,0,7.81,5.79c-2.12,1.86-4.19,5.05-3.9,7.92.21,1.95,1.85,3.52,3.5,4.53,1.18.72,2.29,1.68,3.74,1.81a14,14,0,0,0,4-.23c2.69-.49,5.77-2,6.67-4.61A12.91,12.91,0,0,0,22,8.54C21.44,6.68,19.59,5,18,3.85S13.81,3,12,3.09c-3.1.21-5.24,2.2-6.72,4.78a10.06,10.06,0,0,0-.73,7.74C4.94,17,5.66,19.29,7.08,20c1.66.77,3.82.72,5.64.72,2.68,0,6.11-.17,7.87-2.28C22,16.67,22.21,14,22.16,11.78s-.86-5.35-2.61-6.94-4.06-2-6.31-2.07c-1.62-.06-3.27-.2-4.68.64A11.77,11.77,0,0,0,5.1,6.32c-1.68,2.2-1.87,5.33-1.43,8a6.9,6.9,0,0,0,1.1,3,10.57,10.57,0,0,0,2.38,2.24,9.15,9.15,0,0,0,7.79,1.58" transform="translate(-3.33 -2.58)"/><path class="cls-1" d="M15.39,3.35a17.92,17.92,0,0,0-4.23.36A7.46,7.46,0,0,0,7,6.34c-2.59,3-1.92,7.05.11,10.22,1,1.59,3.13,2.57,4.85,3.3a6.58,6.58,0,0,0,4.07.76,11.48,11.48,0,0,0,3.24-1.28c3.69-2.33,6-8.36,2.95-12C21.08,6,19.05,4.22,17.09,3.87a14,14,0,0,0-6.9.78,7.61,7.61,0,0,0-4.77,5.83,7.92,7.92,0,0,0,1.65,6.68c1.48,2,3.67,2.66,6.14,3s5.42.51,7.39-1.19c1.55-1.35,2.37-4,2.62-5.94.36-2.75-.09-6.29-2.72-8-2.38-1.55-6.14-1.71-8.91-1.49a6.86,6.86,0,0,0-5.66,4.6c-1.69,4.09-1,8.08,2.47,11.08,1.68,1.44,3.21,1.53,5.43,1.63,1.93.09,3.94-.08,5.39-1.34.6-.53,1.39-1,2-1.6a7.47,7.47,0,0,0,1.54-3.77c.35-1.86.54-4.42-.34-6.16a7.13,7.13,0,0,0-2.94-3.45,14.09,14.09,0,0,0-4.11-.82A11,11,0,0,0,8.54,4.92,9.61,9.61,0,0,0,4,13.52c.16,2.66,2.43,5.17,4.81,6.42a11.25,11.25,0,0,0,7.7.8,10.37,10.37,0,0,0,3-1,20.11,20.11,0,0,0,1.81-1.17" transform="translate(-3.33 -2.58)"/></svg>